<?xml version="1.0" standalone="no"?>
<!DOCTYPE svg PUBLIC "-//W3C//DTD SVG 20010904//EN"
 "http://www.w3.org/TR/2001/REC-SVG-20010904/DTD/svg10.dtd">
<svg version="1.0" xmlns="http://www.w3.org/2000/svg"
 width="500.000000pt" height="500.000000pt" viewBox="0 0 500.000000 500.000000"
 preserveAspectRatio="xMidYMid meet">
<metadata>
Created by potrace 1.14, written by Peter Selinger 2001-2017
</metadata>
<g transform="translate(0.000000,500.000000) scale(0.100000,-0.100000)"
fill="#000000" stroke="none">
<path d="M1365 3943 c-143 -20 -321 -93 -433 -178 -250 -189 -379 -552 -344
-968 35 -415 178 -640 467 -733 98 -32 283 -43 391 -25 92 16 214 67 305 127
41 27 77 51 82 52 4 2 6 -155 5 -349 l-3 -353 -173 -35 -173 -34 3 -96 3 -96
490 0 490 0 3 89 c2 49 -1 93 -6 98 -5 5 -70 24 -143 41 l-134 32 -3 1187 -2
1186 -113 21 c-61 11 -152 25 -202 31 -86 9 -447 12 -510 3z m438 -292 l37
-12 0 -558 0 -559 -69 -65 c-120 -113 -236 -154 -408 -144 -191 11 -294 97
-362 304 -76 228 -64 576 27 775 58 127 145 209 271 255 63 23 74 24 266 19
110 -2 217 -9 238 -15z"/>
<path d="M2545 3110 c-115 -4 -220 -8 -232 -9 -22 -1 -23 -5 -23 -95 0 -82 2
-95 18 -100 9 -3 69 -17 132 -31 63 -15 123 -29 133 -31 16 -5 17 -40 17 -547
0 -330 4 -567 11 -607 34 -214 143 -361 313 -426 96 -36 249 -44 362 -19 159
35 309 103 442 202 41 30 75 53 77 51 3 -3 35 -211 35 -229 0 -10 308 -6 498
7 l83 6 -3 96 -3 96 -147 35 -148 35 0 788 0 789 -232 -6 c-128 -3 -275 -8
-325 -11 l-93 -6 0 -93 0 -93 113 -27 c61 -14 129 -31 150 -36 l37 -10 0 -523
0 -523 -79 -75 c-57 -56 -102 -87 -169 -121 -111 -56 -179 -70 -296 -65 -140
7 -205 51 -251 170 -19 51 -20 80 -23 736 l-3 682 -92 -2 c-51 -1 -186 -5
-302 -8z"/>
<path d="M1942 858 c2 -13 10 -23 18 -23 8 0 16 10 18 23 3 17 -2 22 -18 22
-16 0 -21 -5 -18 -22z"/>
<path d="M2200 870 c0 -5 7 -10 15 -10 12 0 15 -19 15 -115 0 -94 -3 -117 -15
-121 -30 -12 -14 -24 30 -24 42 0 58 11 35 25 -5 3 -10 19 -10 36 0 46 31 37
59 -16 18 -34 30 -45 47 -45 26 0 32 14 11 27 -7 4 -23 25 -36 45 -22 37 -22
38 -5 68 10 16 24 30 31 30 7 0 13 6 13 14 0 11 -9 13 -37 9 -42 -6 -54 -13
-36 -20 16 -6 -13 -53 -33 -53 -11 0 -14 19 -14 80 l0 80 -35 0 c-19 0 -35 -4
-35 -10z"/>
<path d="M2620 871 c0 -5 7 -11 15 -15 12 -4 15 -29 15 -131 l0 -125 55 0 c46
0 60 4 80 24 32 32 41 83 21 129 -17 42 -49 55 -96 39 l-30 -11 0 50 c0 48 -1
49 -30 49 -16 0 -30 -4 -30 -9z m144 -123 c36 -51 8 -118 -50 -118 l-34 0 0
60 c0 46 4 61 18 69 27 16 50 13 66 -11z"/>
<path d="M2874 865 c-4 -9 -2 -21 4 -27 15 -15 44 -1 40 19 -4 23 -36 29 -44
8z"/>
<path d="M2970 871 c0 -5 7 -11 15 -15 12 -4 15 -27 15 -115 0 -87 -3 -110
-15 -115 -32 -12 -13 -26 35 -26 48 0 66 12 35 24 -12 4 -15 29 -15 131 l0
125 -35 0 c-19 0 -35 -4 -35 -9z"/>
<path d="M3114 865 c-4 -9 -2 -21 4 -27 15 -15 44 -1 40 19 -4 23 -36 29 -44
8z"/>
<path d="M3258 842 c-11 -2 -18 -13 -18 -28 0 -17 -5 -24 -20 -24 -11 0 -20
-4 -20 -10 0 -5 9 -10 20 -10 18 0 20 -7 20 -74 0 -82 11 -100 56 -94 36 4 44
28 10 28 -25 0 -26 1 -26 70 0 68 1 70 25 70 14 0 25 5 25 10 0 6 -11 10 -24
10 -20 0 -25 6 -28 28 -2 20 -8 27 -20 24z"/>
<path d="M1508 785 c-51 -28 -62 -131 -18 -170 15 -13 30 -16 60 -12 40 5 40
5 40 -29 0 -24 -5 -34 -15 -34 -8 0 -15 -7 -15 -15 0 -11 12 -15 50 -15 38 0
50 4 50 15 0 8 -7 15 -15 15 -12 0 -15 23 -17 128 l-3 127 -45 2 c-25 2 -57
-4 -72 -12z m80 -82 c-3 -67 -3 -68 -33 -71 -35 -4 -55 18 -55 63 0 44 25 75
61 75 l30 0 -3 -67z"/>
<path d="M1698 792 c-29 -3 -39 -22 -13 -22 12 0 15 -14 15 -66 0 -36 5 -74
10 -85 12 -22 59 -26 93 -8 16 9 22 9 25 0 5 -14 62 -15 62 -1 0 6 -7 13 -15
16 -12 5 -15 24 -15 83 0 43 -2 80 -5 83 -8 8 -65 -3 -65 -13 0 -5 7 -9 15 -9
12 0 15 -13 15 -59 0 -64 -13 -85 -52 -79 -21 3 -23 8 -26 78 -2 41 -6 77 -10
80 -4 3 -19 4 -34 2z"/>
<path d="M1938 793 c-29 -4 -39 -23 -13 -23 12 0 15 -14 15 -70 0 -54 -4 -72
-15 -76 -31 -12 -13 -24 35 -24 48 0 66 12 35 24 -12 4 -15 24 -15 91 0 47 -3
84 -7 84 -5 -1 -20 -4 -35 -6z"/>
<path d="M2063 792 c-25 -4 -32 -22 -8 -22 12 0 15 -14 15 -69 0 -52 -4 -70
-15 -75 -32 -12 -13 -26 35 -26 48 0 66 12 35 24 -11 4 -15 21 -15 65 0 49 4
62 19 71 26 13 31 13 31 -5 0 -8 7 -15 15 -15 10 0 15 10 15 30 0 25 -4 30
-23 30 -13 0 -32 -6 -42 -14 -15 -11 -22 -11 -30 -2 -5 7 -20 10 -32 8z"/>
<path d="M2458 793 c-11 -3 -18 -14 -18 -29 0 -27 15 -32 28 -8 6 10 19 14 38
12 23 -2 30 -8 32 -30 3 -26 0 -28 -30 -28 -46 0 -78 -24 -78 -59 0 -15 5 -32
12 -39 16 -16 70 -15 87 1 11 10 14 10 18 0 6 -15 63 -17 63 -3 0 6 -7 13 -15
16 -11 5 -15 22 -15 70 0 51 -4 68 -20 84 -19 19 -60 24 -102 13z m82 -126 c0
-20 -21 -37 -46 -37 -23 0 -34 16 -26 38 6 16 72 16 72 -1z"/>
<path d="M2878 792 c-29 -3 -39 -22 -13 -22 12 0 15 -14 15 -69 0 -52 -4 -70
-15 -75 -30 -11 -14 -26 30 -26 42 0 58 11 35 25 -5 3 -10 42 -10 85 0 43 -3
80 -7 82 -5 2 -20 2 -35 0z"/>
<path d="M3118 792 c-29 -3 -39 -22 -13 -22 12 0 15 -14 15 -69 0 -52 -4 -70
-15 -75 -30 -11 -14 -26 30 -26 42 0 58 11 35 25 -5 3 -10 42 -10 85 0 43 -3
80 -7 82 -5 2 -20 2 -35 0z"/>
<path d="M3383 793 c-18 -2 -33 -8 -33 -14 0 -5 4 -9 9 -9 4 0 23 -39 41 -86
31 -80 33 -88 19 -113 -8 -14 -25 -27 -37 -29 -28 -4 -29 -32 -1 -32 37 0 73
51 108 150 19 52 40 100 47 106 26 21 15 33 -23 27 -44 -7 -52 -11 -36 -21 9
-6 8 -23 -6 -67 -11 -37 -21 -54 -25 -45 -25 62 -36 105 -26 108 11 4 14 33 3
30 -5 0 -23 -3 -40 -5z"/>
</g>
</svg>
